<svg fill="none" height="759" viewBox="0 0 1323 759" width="1323" xmlns="http://www.w3.org/2000/svg" xmlns:xlink="http://www.w3.org/1999/xlink"><filter id="a" color-interpolation-filters="sRGB" filterUnits="userSpaceOnUse" height="646.501" width="937.501" x="172" y="51.4994"><feFlood flood-opacity="0" result="BackgroundImageFix"/><feColorMatrix in="SourceAlpha" type="matrix" values="0 0 0 0 0 0 0 0 0 0 0 0 0 0 0 0 0 0 127 0"/><feOffset/><feGaussianBlur stdDeviation="3.5"/><feColorMatrix type="matrix" values="0 0 0 0 0 0 0 0 0 0.584314 0 0 0 0 1 0 0 0 1 0"/><feBlend in2="BackgroundImageFix" mode="normal" result="effect1_dropShadow"/><feBlend in="SourceGraphic" in2="effect1_dropShadow" mode="normal" result="shape"/></filter><path d="m1265 95h-1149" stroke="#c8ccd0" stroke-opacity=".6" stroke-width="2"/><path d="m1265 170h-1149" stroke="#c8ccd0" stroke-opacity=".6" stroke-width="2"/><path d="m1265 245h-1149" stroke="#c8ccd0" stroke-opacity=".6" stroke-width="2"/><path d="m1265 320h-1149" stroke="#c8ccd0" stroke-opacity=".6" stroke-width="2"/><path d="m1265 395h-1149" stroke="#c8ccd0" stroke-opacity=".6" stroke-width="2"/><path d="m1265 470h-1149" stroke="#c8ccd0" stroke-opacity=".6" stroke-width="2"/><path d="m1265 545h-1149" stroke="#c8ccd0" stroke-opacity=".6" stroke-width="2"/><path d="m1265 620h-1149" stroke="#c8ccd0" stroke-opacity=".6" stroke-width="2"/><g filter="url(#a)"><path d="m181.5 688.5s49-53 61.5-67 61.5-69 68.5-76.5 60.5-63 71-73.5 64.5-58.5 88-76.5c21.136-16.189 87.977-63.119 101.211-72.396 1.547-1.085 3.069-2.136 4.629-3.203 14.646-10.007 93.47-63.931 106.16-73.901 12.221-9.602 83.493-59.968 101.413-72.616 2.732-1.929 5.486-3.833 8.272-5.685 65.449-43.505 115.666-62.396 155.815-71.699 39.5-10 113.5-24 152-34.5" stroke="#0095ff" stroke-linecap="round" stroke-linejoin="round" stroke-width="5"/></g><path d="m1265 697h-1149v-678h1149" stroke="#c8ccd0" stroke-opacity=".6" stroke-width="2"/><g fill="#9199a1"><path d="m23.9516 404.357c.496 0 .9506-.103 1.364-.31.4133-.207.775-.496 1.085-.868.31-.393.5476-.847.713-1.364.186-.537.279-1.137.279-1.798 0-1.302-.2997-2.325-.899-3.069-.5994-.744-1.519-1.116-2.759-1.116-.62 0-1.302.207-2.046.62-.7234.393-1.4157 1.054-2.077 1.984.1653 1.943.6096 3.42 1.333 4.433.744.992 1.7463 1.488 3.007 1.488zm4.061-14.818c-.4134-.475-.9094-.847-1.488-1.116-.558-.289-1.147-.434-1.767-.434-.682 0-1.333.145-1.953.434s-1.1677.765-1.643 1.426c-.4754.661-.8577 1.529-1.147 2.604-.2894 1.054-.4444 2.366-.465 3.937.62-.765 1.3433-1.364 2.17-1.798.8266-.455 1.643-.682 2.449-.682 1.7153 0 3.0793.506 4.092 1.519 1.0333 1.013 1.55 2.542 1.55 4.588 0 .951-.155 1.819-.465 2.604-.31.765-.7337 1.426-1.271 1.984-.5374.558-1.1574.992-1.86 1.302-.7027.31-1.457.465-2.263.465-.9714 0-1.8704-.196-2.697-.589-.8267-.393-1.55-.982-2.17-1.767-.5994-.806-1.0747-1.798-1.426-2.976-.3514-1.199-.527-2.594-.527-4.185 0-1.984.2066-3.668.62-5.053.4133-1.405.9713-2.542 1.674-3.41.7026-.889 1.4983-1.529 2.387-1.922.9093-.413 1.86-.62 2.852-.62 1.0746 0 1.9943.207 2.759.62.7853.393 1.457.889 2.015 1.488zm4.4971 20.243c.868-.393 1.55-.909 2.046-1.55s.744-1.385.744-2.232c-.062.021-.1653.031-.31.031-.496 0-.93-.145-1.302-.434-.3513-.31-.527-.754-.527-1.333 0-.558.186-.992.558-1.302.372-.331.8164-.496 1.333-.496.6614 0 1.178.269 1.55.806.3927.537.589 1.271.589 2.201 0 1.343-.3616 2.511-1.085 3.503-.7233.992-1.7153 1.757-2.976 2.294zm13.5478-13.392c.6406 0 1.3226-.196 2.046-.589.744-.413 1.4466-1.095 2.108-2.046-.1654-1.943-.62-3.41-1.364-4.402s-1.7464-1.488-3.007-1.488c-.4754 0-.93.103-1.364.31-.4134.207-.775.506-1.085.899-.31.372-.558.827-.744 1.364-.1654.537-.248 1.126-.248 1.767 0 1.302.2996 2.325.899 3.069.5993.744 1.519 1.116 2.759 1.116zm-4.278 6.293c.4133.475.899.858 1.457 1.147.5786.289 1.178.434 1.798.434.7026 0 1.364-.145 1.984-.434s1.1676-.765 1.643-1.426c.4753-.682.8576-1.56 1.147-2.635.2893-1.075.4443-2.408.465-3.999-.62.785-1.3434 1.405-2.17 1.86-.8267.455-1.6534.682-2.48.682-1.7154 0-3.0794-.506-4.092-1.519-1.0127-1.013-1.519-2.542-1.519-4.588 0-.951.155-1.808.465-2.573.31-.785.7233-1.457 1.24-2.015.5373-.558 1.1573-.992 1.86-1.302.7233-.31 1.4776-.465 2.263-.465.9713 0 1.8703.196 2.697.589.8473.393 1.5706.992 2.17 1.798.62.785 1.0953 1.777 1.426 2.976.3513 1.178.527 2.563.527 4.154 0 1.984-.2067 3.679-.62 5.084-.4134 1.385-.9714 2.521-1.674 3.41-.7027.868-1.5087 1.509-2.418 1.922-.8887.393-1.829.589-2.821.589-1.054 0-1.984-.196-2.79-.589-.7854-.393-1.4467-.889-1.984-1.488zm20.1211 3.689c-2.0046 0-3.565-.889-4.681-2.666s-1.674-4.33-1.674-7.657.558-5.859 1.674-7.595 2.6764-2.604 4.681-2.604c1.984 0 3.534.868 4.65 2.604s1.674 4.268 1.674 7.595-.558 5.88-1.674 7.657-2.666 2.666-4.65 2.666zm0-2.046c.5787 0 1.0954-.155 1.55-.465.4754-.331.8784-.827 1.209-1.488.3514-.682.62-1.54.806-2.573.186-1.054.279-2.304.279-3.751s-.093-2.687-.279-3.72-.4546-1.87-.806-2.511c-.3306-.661-.7336-1.147-1.209-1.457-.4546-.31-.9713-.465-1.55-.465-.5786 0-1.1056.155-1.581.465-.4753.31-.8886.796-1.24 1.457-.3306.641-.589 1.478-.775 2.511s-.279 2.273-.279 3.72c0 2.893.3514 5.001 1.054 6.324.7234 1.302 1.6637 1.953 2.821 1.953zm15.4092 2.046c-2.0046 0-3.565-.889-4.681-2.666s-1.674-4.33-1.674-7.657.558-5.859 1.674-7.595 2.6764-2.604 4.681-2.604c1.984 0 3.534.868 4.65 2.604s1.674 4.268 1.674 7.595-.558 5.88-1.674 7.657-2.666 2.666-4.65 2.666zm0-2.046c.5787 0 1.0954-.155 1.55-.465.4754-.331.8784-.827 1.209-1.488.3514-.682.62-1.54.806-2.573.186-1.054.279-2.304.279-3.751s-.093-2.687-.279-3.72-.4546-1.87-.806-2.511c-.3306-.661-.7336-1.147-1.209-1.457-.4546-.31-.9713-.465-1.55-.465-.5786 0-1.1056.155-1.581.465-.4753.31-.8886.796-1.24 1.457-.3306.641-.589 1.478-.775 2.511s-.279 2.273-.279 3.72c0 2.893.3514 5.001 1.054 6.324.7234 1.302 1.6637 1.953 2.821 1.953z"/><path d="m21.1306 331c.0826-1.86.248-3.565.496-5.115s.589-3.017 1.023-4.402c.4546-1.405 1.023-2.759 1.705-4.061.7026-1.302 1.5396-2.635 2.511-3.999h-9.858v-2.201h12.741v1.581c-1.178 1.488-2.139 2.914-2.883 4.278-.7234 1.364-1.302 2.759-1.736 4.185-.434 1.405-.7544 2.904-.961 4.495-.186 1.571-.3204 3.317-.403 5.239zm11.3791 3.782c.868-.393 1.55-.909 2.046-1.55s.744-1.385.744-2.232c-.062.021-.1653.031-.31.031-.496 0-.93-.145-1.302-.434-.3513-.31-.527-.754-.527-1.333 0-.558.186-.992.558-1.302.372-.331.8164-.496 1.333-.496.6614 0 1.178.269 1.55.806.3927.537.589 1.271.589 2.201 0 1.343-.3616 2.511-1.085 3.503-.7233.992-1.7153 1.757-2.976 2.294zm13.5478-13.392c.6406 0 1.3226-.196 2.046-.589.744-.413 1.4466-1.095 2.108-2.046-.1654-1.943-.62-3.41-1.364-4.402s-1.7464-1.488-3.007-1.488c-.4754 0-.93.103-1.364.31-.4134.207-.775.506-1.085.899-.31.372-.558.827-.744 1.364-.1654.537-.248 1.126-.248 1.767 0 1.302.2996 2.325.899 3.069.5993.744 1.519 1.116 2.759 1.116zm-4.278 6.293c.4133.475.899.858 1.457 1.147.5786.289 1.178.434 1.798.434.7026 0 1.364-.145 1.984-.434s1.1676-.765 1.643-1.426c.4753-.682.8576-1.56 1.147-2.635.2893-1.075.4443-2.408.465-3.999-.62.785-1.3434 1.405-2.17 1.86-.8267.455-1.6534.682-2.48.682-1.7154 0-3.0794-.506-4.092-1.519-1.0127-1.013-1.519-2.542-1.519-4.588 0-.951.155-1.808.465-2.573.31-.785.7233-1.457 1.24-2.015.5373-.558 1.1573-.992 1.86-1.302.7233-.31 1.4776-.465 2.263-.465.9713 0 1.8703.196 2.697.589.8473.393 1.5706.992 2.17 1.798.62.785 1.0953 1.777 1.426 2.976.3513 1.178.527 2.563.527 4.154 0 1.984-.2067 3.679-.62 5.084-.4134 1.385-.9714 2.521-1.674 3.41-.7027.868-1.5087 1.509-2.418 1.922-.8887.393-1.829.589-2.821.589-1.054 0-1.984-.196-2.79-.589-.7854-.393-1.4467-.889-1.984-1.488zm20.1211 3.689c-2.0046 0-3.565-.889-4.681-2.666s-1.674-4.33-1.674-7.657.558-5.859 1.674-7.595 2.6764-2.604 4.681-2.604c1.984 0 3.534.868 4.65 2.604s1.674 4.268 1.674 7.595-.558 5.88-1.674 7.657-2.666 2.666-4.65 2.666zm0-2.046c.5787 0 1.0954-.155 1.55-.465.4754-.331.8784-.827 1.209-1.488.3514-.682.62-1.54.806-2.573.186-1.054.279-2.304.279-3.751s-.093-2.687-.279-3.72-.4546-1.87-.806-2.511c-.3306-.661-.7336-1.147-1.209-1.457-.4546-.31-.9713-.465-1.55-.465-.5786 0-1.1056.155-1.581.465-.4753.31-.8886.796-1.24 1.457-.3306.641-.589 1.478-.775 2.511s-.279 2.273-.279 3.72c0 2.893.3514 5.001 1.054 6.324.7234 1.302 1.6637 1.953 2.821 1.953zm15.4092 2.046c-2.0046 0-3.565-.889-4.681-2.666s-1.674-4.33-1.674-7.657.558-5.859 1.674-7.595 2.6764-2.604 4.681-2.604c1.984 0 3.534.868 4.65 2.604s1.674 4.268 1.674 7.595-.558 5.88-1.674 7.657-2.666 2.666-4.65 2.666zm0-2.046c.5787 0 1.0954-.155 1.55-.465.4754-.331.8784-.827 1.209-1.488.3514-.682.62-1.54.806-2.573.186-1.054.279-2.304.279-3.751s-.093-2.687-.279-3.72-.4546-1.87-.806-2.511c-.3306-.661-.7336-1.147-1.209-1.457-.4546-.31-.9713-.465-1.55-.465-.5786 0-1.1056.155-1.581.465-.4753.31-.8886.796-1.24 1.457-.3306.641-.589 1.478-.775 2.511s-.279 2.273-.279 3.72c0 2.893.3514 5.001 1.054 6.324.7234 1.302 1.6637 1.953 2.821 1.953z"/><path d="m19.2086 250.699c0 .558.1033 1.064.31 1.519.2273.455.527.858.899 1.209.3926.331.8473.589 1.364.775.5166.186 1.0746.279 1.674.279 1.1573 0 2.0873-.32 2.79-.961.7233-.641 1.085-1.478 1.085-2.511 0-.641-.1447-1.188-.434-1.643-.2894-.455-.682-.847-1.178-1.178-.496-.351-1.0747-.661-1.736-.93-.6407-.289-1.3124-.579-2.015-.868-.7854.537-1.4467 1.168-1.984 1.891-.5167.703-.775 1.509-.775 2.418zm5.58-5.487c.6613-.599 1.1676-1.23 1.519-1.891.372-.661.558-1.354.558-2.077 0-.992-.2997-1.819-.899-2.48-.5994-.682-1.4467-1.023-2.542-1.023-.93 0-1.6947.289-2.294.868-.5994.579-.899 1.354-.899 2.325 0 .599.124 1.116.372 1.55.248.413.5786.785.992 1.116.434.331.9196.63 1.457.899.558.248 1.1366.486 1.736.713zm-7.874 5.735c0-.641.1033-1.23.31-1.767.2273-.558.5063-1.054.837-1.488.3513-.455.744-.847 1.178-1.178.4546-.351.9196-.651 1.395-.899v-.124c-.7234-.517-1.364-1.137-1.922-1.86-.558-.744-.837-1.643-.837-2.697 0-.765.1446-1.457.434-2.077.2893-.62.682-1.147 1.178-1.581.496-.455 1.085-.806 1.767-1.054s1.426-.372 2.232-.372c.868 0 1.643.134 2.325.403.682.248 1.2606.61 1.736 1.085.496.455.868 1.013 1.116 1.674.2686.641.403 1.343.403 2.108 0 .517-.093 1.013-.279 1.488-.1654.475-.3824.92-.651 1.333-.248.413-.5374.785-.868 1.116-.31.331-.62.61-.93.837v.124c.434.248.8576.537 1.271.868.4133.31.775.672 1.085 1.085.3306.393.589.847.775 1.364.2066.517.31 1.106.31 1.767 0 .744-.155 1.436-.465 2.077s-.744 1.199-1.302 1.674-1.2297.847-2.015 1.116c-.7854.269-1.6534.403-2.604.403-.93 0-1.798-.134-2.604-.403-.7854-.269-1.4674-.641-2.046-1.116-.558-.496-1.0024-1.075-1.333-1.736-.3307-.661-.496-1.385-.496-2.17zm15.5951 8.835c.868-.393 1.55-.909 2.046-1.55s.744-1.385.744-2.232c-.062.021-.1653.031-.31.031-.496 0-.93-.145-1.302-.434-.3513-.31-.527-.754-.527-1.333 0-.558.186-.992.558-1.302.372-.331.8164-.496 1.333-.496.6614 0 1.178.269 1.55.806.3927.537.589 1.271.589 2.201 0 1.343-.3616 2.511-1.085 3.503-.7233.992-1.7153 1.757-2.976 2.294zm13.5478-13.392c.6406 0 1.3226-.196 2.046-.589.744-.413 1.4466-1.095 2.108-2.046-.1654-1.943-.62-3.41-1.364-4.402s-1.7464-1.488-3.007-1.488c-.4754 0-.93.103-1.364.31-.4134.207-.775.506-1.085.899-.31.372-.558.827-.744 1.364-.1654.537-.248 1.126-.248 1.767 0 1.302.2996 2.325.899 3.069.5993.744 1.519 1.116 2.759 1.116zm-4.278 6.293c.4133.475.899.858 1.457 1.147.5786.289 1.178.434 1.798.434.7026 0 1.364-.145 1.984-.434s1.1676-.765 1.643-1.426c.4753-.682.8576-1.56 1.147-2.635.2893-1.075.4443-2.408.465-3.999-.62.785-1.3434 1.405-2.17 1.86-.8267.455-1.6534.682-2.48.682-1.7154 0-3.0794-.506-4.092-1.519-1.0127-1.013-1.519-2.542-1.519-4.588 0-.951.155-1.808.465-2.573.31-.785.7233-1.457 1.24-2.015.5373-.558 1.1573-.992 1.86-1.302.7233-.31 1.4776-.465 2.263-.465.9713 0 1.8703.196 2.697.589.8473.393 1.5706.992 2.17 1.798.62.785 1.0953 1.777 1.426 2.976.3513 1.178.527 2.563.527 4.154 0 1.984-.2067 3.679-.62 5.084-.4134 1.385-.9714 2.521-1.674 3.41-.7027.868-1.5087 1.509-2.418 1.922-.8887.393-1.829.589-2.821.589-1.054 0-1.984-.196-2.79-.589-.7854-.393-1.4467-.889-1.984-1.488zm20.1211 3.689c-2.0046 0-3.565-.889-4.681-2.666s-1.674-4.33-1.674-7.657.558-5.859 1.674-7.595 2.6764-2.604 4.681-2.604c1.984 0 3.534.868 4.65 2.604s1.674 4.268 1.674 7.595-.558 5.88-1.674 7.657-2.666 2.666-4.65 2.666zm0-2.046c.5787 0 1.0954-.155 1.55-.465.4754-.331.8784-.827 1.209-1.488.3514-.682.62-1.54.806-2.573.186-1.054.279-2.304.279-3.751s-.093-2.687-.279-3.72-.4546-1.87-.806-2.511c-.3306-.661-.7336-1.147-1.209-1.457-.4546-.31-.9713-.465-1.55-.465-.5786 0-1.1056.155-1.581.465-.4753.31-.8886.796-1.24 1.457-.3306.641-.589 1.478-.775 2.511s-.279 2.273-.279 3.72c0 2.893.3514 5.001 1.054 6.324.7234 1.302 1.6637 1.953 2.821 1.953zm15.4092 2.046c-2.0046 0-3.565-.889-4.681-2.666s-1.674-4.33-1.674-7.657.558-5.859 1.674-7.595 2.6764-2.604 4.681-2.604c1.984 0 3.534.868 4.65 2.604s1.674 4.268 1.674 7.595-.558 5.88-1.674 7.657-2.666 2.666-4.65 2.666zm0-2.046c.5787 0 1.0954-.155 1.55-.465.4754-.331.8784-.827 1.209-1.488.3514-.682.62-1.54.806-2.573.186-1.054.279-2.304.279-3.751s-.093-2.687-.279-3.72-.4546-1.87-.806-2.511c-.3306-.661-.7336-1.147-1.209-1.457-.4546-.31-.9713-.465-1.55-.465-.5786 0-1.1056.155-1.581.465-.4753.31-.8886.796-1.24 1.457-.3306.641-.589 1.478-.775 2.511s-.279 2.273-.279 3.72c0 2.893.3514 5.001 1.054 6.324.7234 1.302 1.6637 1.953 2.821 1.953z"/><path d="m22.9286 171.39c.6406 0 1.3226-.196 2.046-.589.744-.413 1.4466-1.095 2.108-2.046-.1654-1.943-.62-3.41-1.364-4.402s-1.7464-1.488-3.007-1.488c-.4754 0-.93.103-1.364.31-.4134.207-.775.506-1.085.899-.31.372-.558.827-.744 1.364-.1654.537-.248 1.126-.248 1.767 0 1.302.2996 2.325.899 3.069.5993.744 1.519 1.116 2.759 1.116zm-4.278 6.293c.4133.475.899.858 1.457 1.147.5786.289 1.178.434 1.798.434.7026 0 1.364-.145 1.984-.434s1.1676-.765 1.643-1.426c.4753-.682.8576-1.56 1.147-2.635.2893-1.075.4443-2.408.465-3.999-.62.785-1.3434 1.405-2.17 1.86-.8267.455-1.6534.682-2.48.682-1.7154 0-3.0794-.506-4.092-1.519-1.0127-1.013-1.519-2.542-1.519-4.588 0-.951.155-1.808.465-2.573.31-.785.7233-1.457 1.24-2.015.5373-.558 1.1573-.992 1.86-1.302.7233-.31 1.4776-.465 2.263-.465.9713 0 1.8703.196 2.697.589.8473.393 1.5706.992 2.17 1.798.62.785 1.0953 1.777 1.426 2.976.3513 1.178.527 2.563.527 4.154 0 1.984-.2067 3.679-.62 5.084-.4134 1.385-.9714 2.521-1.674 3.41-.7027.868-1.5087 1.509-2.418 1.922-.8887.393-1.829.589-2.821.589-1.054 0-1.984-.196-2.79-.589-.7854-.393-1.4467-.889-1.984-1.488zm13.8591 7.099c.868-.393 1.55-.909 2.046-1.55s.744-1.385.744-2.232c-.062.021-.1653.031-.31.031-.496 0-.93-.145-1.302-.434-.3513-.31-.527-.754-.527-1.333 0-.558.186-.992.558-1.302.372-.331.8164-.496 1.333-.496.6614 0 1.178.269 1.55.806.3927.537.589 1.271.589 2.201 0 1.343-.3616 2.511-1.085 3.503-.7233.992-1.7153 1.757-2.976 2.294zm13.5478-13.392c.6406 0 1.3226-.196 2.046-.589.744-.413 1.4466-1.095 2.108-2.046-.1654-1.943-.62-3.41-1.364-4.402s-1.7464-1.488-3.007-1.488c-.4754 0-.93.103-1.364.31-.4134.207-.775.506-1.085.899-.31.372-.558.827-.744 1.364-.1654.537-.248 1.126-.248 1.767 0 1.302.2996 2.325.899 3.069.5993.744 1.519 1.116 2.759 1.116zm-4.278 6.293c.4133.475.899.858 1.457 1.147.5786.289 1.178.434 1.798.434.7026 0 1.364-.145 1.984-.434s1.1676-.765 1.643-1.426c.4753-.682.8576-1.56 1.147-2.635.2893-1.075.4443-2.408.465-3.999-.62.785-1.3434 1.405-2.17 1.86-.8267.455-1.6534.682-2.48.682-1.7154 0-3.0794-.506-4.092-1.519-1.0127-1.013-1.519-2.542-1.519-4.588 0-.951.155-1.808.465-2.573.31-.785.7233-1.457 1.24-2.015.5373-.558 1.1573-.992 1.86-1.302.7233-.31 1.4776-.465 2.263-.465.9713 0 1.8703.196 2.697.589.8473.393 1.5706.992 2.17 1.798.62.785 1.0953 1.777 1.426 2.976.3513 1.178.527 2.563.527 4.154 0 1.984-.2067 3.679-.62 5.084-.4134 1.385-.9714 2.521-1.674 3.41-.7027.868-1.5087 1.509-2.418 1.922-.8887.393-1.829.589-2.821.589-1.054 0-1.984-.196-2.79-.589-.7854-.393-1.4467-.889-1.984-1.488zm20.1211 3.689c-2.0046 0-3.565-.889-4.681-2.666s-1.674-4.33-1.674-7.657.558-5.859 1.674-7.595 2.6764-2.604 4.681-2.604c1.984 0 3.534.868 4.65 2.604s1.674 4.268 1.674 7.595-.558 5.88-1.674 7.657-2.666 2.666-4.65 2.666zm0-2.046c.5787 0 1.0954-.155 1.55-.465.4754-.331.8784-.827 1.209-1.488.3514-.682.62-1.54.806-2.573.186-1.054.279-2.304.279-3.751s-.093-2.687-.279-3.72-.4546-1.87-.806-2.511c-.3306-.661-.7336-1.147-1.209-1.457-.4546-.31-.9713-.465-1.55-.465-.5786 0-1.1056.155-1.581.465-.4753.31-.8886.796-1.24 1.457-.3306.641-.589 1.478-.775 2.511s-.279 2.273-.279 3.72c0 2.893.3514 5.001 1.054 6.324.7234 1.302 1.6637 1.953 2.821 1.953zm15.4092 2.046c-2.0046 0-3.565-.889-4.681-2.666s-1.674-4.33-1.674-7.657.558-5.859 1.674-7.595 2.6764-2.604 4.681-2.604c1.984 0 3.534.868 4.65 2.604s1.674 4.268 1.674 7.595-.558 5.88-1.674 7.657-2.666 2.666-4.65 2.666zm0-2.046c.5787 0 1.0954-.155 1.55-.465.4754-.331.8784-.827 1.209-1.488.3514-.682.62-1.54.806-2.573.186-1.054.279-2.304.279-3.751s-.093-2.687-.279-3.72-.4546-1.87-.806-2.511c-.3306-.661-.7336-1.147-1.209-1.457-.4546-.31-.9713-.465-1.55-.465-.5786 0-1.1056.155-1.581.465-.4753.31-.8886.796-1.24 1.457-.3306.641-.589 1.478-.775 2.511s-.279 2.273-.279 3.72c0 2.893.3514 5.001 1.054 6.324.7234 1.302 1.6637 1.953 2.821 1.953z"/><path d="m16.8836 704.481c1.488-1.488 2.8106-2.831 3.968-4.03 1.1573-1.199 2.1286-2.304 2.914-3.317.7853-1.033 1.3846-1.974 1.798-2.821.4133-.868.62-1.705.62-2.511 0-1.137-.31-2.067-.93-2.79s-1.5604-1.085-2.821-1.085c-.8267 0-1.5914.238-2.294.713-.7027.455-1.3434 1.013-1.922 1.674l-1.457-1.457c.8266-.909 1.705-1.633 2.635-2.17.93-.558 2.046-.837 3.348-.837 1.8393 0 3.286.537 4.34 1.612 1.054 1.054 1.581 2.459 1.581 4.216 0 .93-.2067 1.87-.62 2.821-.3927.93-.9507 1.901-1.674 2.914-.7027.992-1.55 2.036-2.542 3.131-.9714 1.075-2.046 2.222-3.224 3.441.5373-.041 1.0953-.083 1.674-.124.5786-.041 1.1263-.062 1.643-.062h5.735v2.201h-12.772zm15.6261 5.301c.868-.393 1.55-.909 2.046-1.55s.744-1.385.744-2.232c-.062.021-.1653.031-.31.031-.496 0-.93-.145-1.302-.434-.3513-.31-.527-.754-.527-1.333 0-.558.186-.992.558-1.302.372-.331.8164-.496 1.333-.496.6614 0 1.178.269 1.55.806.3927.537.589 1.271.589 2.201 0 1.343-.3616 2.511-1.085 3.503-.7233.992-1.7153 1.757-2.976 2.294zm13.5478-13.392c.6406 0 1.3226-.196 2.046-.589.744-.413 1.4466-1.095 2.108-2.046-.1654-1.943-.62-3.41-1.364-4.402s-1.7464-1.488-3.007-1.488c-.4754 0-.93.103-1.364.31-.4134.207-.775.506-1.085.899-.31.372-.558.827-.744 1.364-.1654.537-.248 1.126-.248 1.767 0 1.302.2996 2.325.899 3.069.5993.744 1.519 1.116 2.759 1.116zm-4.278 6.293c.4133.475.899.858 1.457 1.147.5786.289 1.178.434 1.798.434.7026 0 1.364-.145 1.984-.434s1.1676-.765 1.643-1.426c.4753-.682.8576-1.56 1.147-2.635.2893-1.075.4443-2.408.465-3.999-.62.785-1.3434 1.405-2.17 1.86-.8267.455-1.6534.682-2.48.682-1.7154 0-3.0794-.506-4.092-1.519-1.0127-1.013-1.519-2.542-1.519-4.588 0-.951.155-1.808.465-2.573.31-.785.7233-1.457 1.24-2.015.5373-.558 1.1573-.992 1.86-1.302.7233-.31 1.4776-.465 2.263-.465.9713 0 1.8703.196 2.697.589.8473.393 1.5706.992 2.17 1.798.62.785 1.0953 1.777 1.426 2.976.3513 1.178.527 2.563.527 4.154 0 1.984-.2067 3.679-.62 5.084-.4134 1.385-.9714 2.521-1.674 3.41-.7027.868-1.5087 1.509-2.418 1.922-.8887.393-1.829.589-2.821.589-1.054 0-1.984-.196-2.79-.589-.7854-.393-1.4467-.889-1.984-1.488zm20.1211 3.689c-2.0046 0-3.565-.889-4.681-2.666s-1.674-4.33-1.674-7.657.558-5.859 1.674-7.595 2.6764-2.604 4.681-2.604c1.984 0 3.534.868 4.65 2.604s1.674 4.268 1.674 7.595-.558 5.88-1.674 7.657-2.666 2.666-4.65 2.666zm0-2.046c.5787 0 1.0954-.155 1.55-.465.4754-.331.8784-.827 1.209-1.488.3514-.682.62-1.54.806-2.573.186-1.054.279-2.304.279-3.751s-.093-2.687-.279-3.72-.4546-1.87-.806-2.511c-.3306-.661-.7336-1.147-1.209-1.457-.4546-.31-.9713-.465-1.55-.465-.5786 0-1.1056.155-1.581.465-.4753.31-.8886.796-1.24 1.457-.3306.641-.589 1.478-.775 2.511s-.279 2.273-.279 3.72c0 2.893.3514 5.001 1.054 6.324.7234 1.302 1.6637 1.953 2.821 1.953zm15.4092 2.046c-2.0046 0-3.565-.889-4.681-2.666s-1.674-4.33-1.674-7.657.558-5.859 1.674-7.595 2.6764-2.604 4.681-2.604c1.984 0 3.534.868 4.65 2.604s1.674 4.268 1.674 7.595-.558 5.88-1.674 7.657-2.666 2.666-4.65 2.666zm0-2.046c.5787 0 1.0954-.155 1.55-.465.4754-.331.8784-.827 1.209-1.488.3514-.682.62-1.54.806-2.573.186-1.054.279-2.304.279-3.751s-.093-2.687-.279-3.72-.4546-1.87-.806-2.511c-.3306-.661-.7336-1.147-1.209-1.457-.4546-.31-.9713-.465-1.55-.465-.5786 0-1.1056.155-1.581.465-.4753.31-.8886.796-1.24 1.457-.3306.641-.589 1.478-.775 2.511s-.279 2.273-.279 3.72c0 2.893.3514 5.001 1.054 6.324.7234 1.302 1.6637 1.953 2.821 1.953z"/><path d="m56.7971 748.892h4.526v-14.57h-3.596v-1.643c.9094-.165 1.6947-.362 2.356-.589.682-.248 1.2917-.537 1.829-.868h1.953v17.67h4.092v2.108h-11.16zm14.9752-1.891c.5787.599 1.2607 1.126 2.046 1.581.806.455 1.7877.682 2.945.682.5994 0 1.1574-.103 1.674-.31.5374-.227 1.0024-.537 1.395-.93.3927-.393.7027-.868.93-1.426.2274-.558.341-1.178.341-1.86 0-1.364-.3823-2.428-1.147-3.193-.7646-.765-1.7876-1.147-3.069-1.147-.682 0-1.271.103-1.767.31-.4753.207-1.0126.506-1.612.899l-1.364-.868.651-9.517h9.889v2.201h-7.657l-.527 5.859c.4754-.248.9507-.444 1.426-.589.4754-.145 1.0127-.217 1.612-.217.8474 0 1.643.124 2.387.372s1.395.63 1.953 1.147c.558.496.992 1.137 1.302 1.922.3307.765.496 1.684.496 2.759s-.186 2.025-.558 2.852-.868 1.529-1.488 2.108c-.62.558-1.333.992-2.139 1.302-.7853.289-1.612.434-2.48.434-.7853 0-1.5086-.083-2.17-.248-.6406-.145-1.2296-.341-1.767-.589-.5166-.248-.992-.527-1.426-.837-.4133-.331-.7853-.672-1.116-1.023zm22.4508-16.337h3.038l3.9369 10.912 1.488 4.154h.124l1.426-4.154 3.906-10.912h3.038v20.336h-2.449v-11.191c0-.909.031-1.912.093-3.007.083-1.095.165-2.098.248-3.007h-.124l-1.643 4.526-3.906 10.633h-1.457l-3.9369-10.633-1.612-4.526h-.124c.062.909.1343 1.912.217 3.007s.124 2.098.124 3.007v11.191h-2.387zm21.5319 16.43c0-1.653.733-2.914 2.201-3.782 1.488-.889 3.844-1.509 7.068-1.86 0-.475-.052-.94-.155-1.395-.083-.455-.248-.858-.496-1.209-.228-.351-.538-.63-.93-.837-.393-.227-.899-.341-1.519-.341-.889 0-1.716.165-2.48.496-.744.331-1.416.703-2.015 1.116l-1.023-1.767c.702-.455 1.56-.889 2.573-1.302 1.012-.434 2.128-.651 3.348-.651 1.839 0 3.172.568 3.999 1.705.826 1.116 1.24 2.614 1.24 4.495v9.238h-2.108l-.217-1.798h-.062c-.724.599-1.509 1.116-2.356 1.55-.827.413-1.705.62-2.635.62-1.282 0-2.346-.372-3.193-1.116-.827-.744-1.24-1.798-1.24-3.162zm2.511-.186c0 .868.248 1.488.744 1.86.516.372 1.147.558 1.891.558.723 0 1.405-.165 2.046-.496.661-.351 1.353-.858 2.077-1.519v-4.185c-1.261.165-2.325.362-3.193.589s-1.571.496-2.108.806c-.517.31-.889.672-1.116 1.085-.228.393-.341.827-.341 1.302zm14.096-10.974h2.108l.217 2.728h.093c.516-.951 1.136-1.705 1.86-2.263.744-.558 1.55-.837 2.418-.837.599 0 1.136.103 1.612.31l-.496 2.232c-.248-.083-.476-.145-.682-.186-.207-.041-.465-.062-.775-.062-.641 0-1.313.258-2.015.775-.682.517-1.282 1.416-1.798 2.697v9.672h-2.542zm15.711 13.547c1.488-1.488 2.811-2.831 3.968-4.03 1.158-1.199 2.129-2.304 2.914-3.317.786-1.033 1.385-1.974 1.798-2.821.414-.868.62-1.705.62-2.511 0-1.137-.31-2.067-.93-2.79s-1.56-1.085-2.821-1.085c-.826 0-1.591.238-2.294.713-.702.455-1.343 1.013-1.922 1.674l-1.457-1.457c.827-.909 1.705-1.633 2.635-2.17.93-.558 2.046-.837 3.348-.837 1.84 0 3.286.537 4.34 1.612 1.054 1.054 1.581 2.459 1.581 4.216 0 .93-.206 1.87-.62 2.821-.392.93-.95 1.901-1.674 2.914-.702.992-1.55 2.036-2.542 3.131-.971 1.075-2.046 2.222-3.224 3.441.538-.041 1.096-.083 1.674-.124.579-.041 1.127-.062 1.643-.062h5.735v2.201h-12.772zm16.619-.589h4.526v-14.57h-3.596v-1.643c.909-.165 1.694-.362 2.356-.589.682-.248 1.291-.537 1.829-.868h1.953v17.67h4.092v2.108h-11.16z"/><path d="m227.588 749.481c1.488-1.488 2.811-2.831 3.968-4.03s2.129-2.304 2.914-3.317c.785-1.033 1.385-1.974 1.798-2.821.413-.868.62-1.705.62-2.511 0-1.137-.31-2.067-.93-2.79s-1.56-1.085-2.821-1.085c-.827 0-1.591.238-2.294.713-.703.455-1.343 1.013-1.922 1.674l-1.457-1.457c.827-.909 1.705-1.633 2.635-2.17.93-.558 2.046-.837 3.348-.837 1.839 0 3.286.537 4.34 1.612 1.054 1.054 1.581 2.459 1.581 4.216 0 .93-.207 1.87-.62 2.821-.393.93-.951 1.901-1.674 2.914-.703.992-1.55 2.036-2.542 3.131-.971 1.075-2.046 2.222-3.224 3.441.537-.041 1.095-.083 1.674-.124s1.126-.062 1.643-.062h5.735v2.201h-12.772zm21.888 1.891c-2.004 0-3.565-.889-4.681-2.666s-1.674-4.33-1.674-7.657.558-5.859 1.674-7.595 2.677-2.604 4.681-2.604c1.984 0 3.534.868 4.65 2.604s1.674 4.268 1.674 7.595-.558 5.88-1.674 7.657-2.666 2.666-4.65 2.666zm0-2.046c.579 0 1.096-.155 1.55-.465.476-.331.879-.827 1.209-1.488.352-.682.62-1.54.806-2.573.186-1.054.279-2.304.279-3.751s-.093-2.687-.279-3.72-.454-1.87-.806-2.511c-.33-.661-.733-1.147-1.209-1.457-.454-.31-.971-.465-1.55-.465-.578 0-1.105.155-1.581.465-.475.31-.888.796-1.24 1.457-.33.641-.589 1.478-.775 2.511s-.279 2.273-.279 3.72c0 2.893.352 5.001 1.054 6.324.724 1.302 1.664 1.953 2.821 1.953zm16.747-18.662h3.038l3.937 10.912 1.488 4.154h.124l1.426-4.154 3.906-10.912h3.038v20.336h-2.449v-11.191c0-.909.031-1.912.093-3.007.083-1.095.165-2.098.248-3.007h-.124l-1.643 4.526-3.906 10.633h-1.457l-3.937-10.633-1.612-4.526h-.124c.062.909.134 1.912.217 3.007s.124 2.098.124 3.007v11.191h-2.387zm21.532 16.43c0-1.653.733-2.914 2.201-3.782 1.488-.889 3.844-1.509 7.068-1.86 0-.475-.052-.94-.155-1.395-.083-.455-.248-.858-.496-1.209-.228-.351-.538-.63-.93-.837-.393-.227-.899-.341-1.519-.341-.889 0-1.716.165-2.48.496-.744.331-1.416.703-2.015 1.116l-1.023-1.767c.702-.455 1.56-.889 2.573-1.302 1.012-.434 2.128-.651 3.348-.651 1.839 0 3.172.568 3.999 1.705.826 1.116 1.24 2.614 1.24 4.495v9.238h-2.108l-.217-1.798h-.062c-.724.599-1.509 1.116-2.356 1.55-.827.413-1.705.62-2.635.62-1.282 0-2.346-.372-3.193-1.116-.827-.744-1.24-1.798-1.24-3.162zm2.511-.186c0 .868.248 1.488.744 1.86.516.372 1.147.558 1.891.558.723 0 1.405-.165 2.046-.496.661-.351 1.353-.858 2.077-1.519v-4.185c-1.261.165-2.325.362-3.193.589s-1.571.496-2.108.806c-.517.31-.889.672-1.116 1.085-.228.393-.341.827-.341 1.302zm14.096-10.974h2.108l.217 2.728h.093c.516-.951 1.136-1.705 1.86-2.263.744-.558 1.55-.837 2.418-.837.599 0 1.136.103 1.612.31l-.496 2.232c-.248-.083-.476-.145-.682-.186-.207-.041-.465-.062-.775-.062-.641 0-1.313.258-2.015.775-.682.517-1.282 1.416-1.798 2.697v9.672h-2.542zm15.711 13.547c1.488-1.488 2.811-2.831 3.968-4.03 1.158-1.199 2.129-2.304 2.914-3.317.786-1.033 1.385-1.974 1.798-2.821.414-.868.62-1.705.62-2.511 0-1.137-.31-2.067-.93-2.79s-1.56-1.085-2.821-1.085c-.826 0-1.591.238-2.294.713-.702.455-1.343 1.013-1.922 1.674l-1.457-1.457c.827-.909 1.705-1.633 2.635-2.17.93-.558 2.046-.837 3.348-.837 1.84 0 3.286.537 4.34 1.612 1.054 1.054 1.581 2.459 1.581 4.216 0 .93-.206 1.87-.62 2.821-.392.93-.95 1.901-1.674 2.914-.702.992-1.55 2.036-2.542 3.131-.971 1.075-2.046 2.222-3.224 3.441.538-.041 1.096-.083 1.674-.124.579-.041 1.127-.062 1.643-.062h5.735v2.201h-12.772zm16.619-.589h4.526v-14.57h-3.596v-1.643c.909-.165 1.694-.362 2.356-.589.682-.248 1.291-.537 1.829-.868h1.953v17.67h4.092v2.108h-11.16z"/><path d="m399.588 749.481c1.488-1.488 2.811-2.831 3.968-4.03s2.129-2.304 2.914-3.317c.785-1.033 1.385-1.974 1.798-2.821.413-.868.62-1.705.62-2.511 0-1.137-.31-2.067-.93-2.79s-1.56-1.085-2.821-1.085c-.827 0-1.591.238-2.294.713-.703.455-1.343 1.013-1.922 1.674l-1.457-1.457c.827-.909 1.705-1.633 2.635-2.17.93-.558 2.046-.837 3.348-.837 1.839 0 3.286.537 4.34 1.612 1.054 1.054 1.581 2.459 1.581 4.216 0 .93-.207 1.87-.62 2.821-.393.93-.951 1.901-1.674 2.914-.703.992-1.55 2.036-2.542 3.131-.971 1.075-2.046 2.222-3.224 3.441.537-.041 1.095-.083 1.674-.124s1.126-.062 1.643-.062h5.735v2.201h-12.772zm16.184-2.48c.579.599 1.261 1.126 2.046 1.581.806.455 1.788.682 2.945.682.6 0 1.158-.103 1.674-.31.538-.227 1.003-.537 1.395-.93.393-.393.703-.868.93-1.426.228-.558.341-1.178.341-1.86 0-1.364-.382-2.428-1.147-3.193-.764-.765-1.787-1.147-3.069-1.147-.682 0-1.271.103-1.767.31-.475.207-1.012.506-1.612.899l-1.364-.868.651-9.517h9.889v2.201h-7.657l-.527 5.859c.476-.248.951-.444 1.426-.589.476-.145 1.013-.217 1.612-.217.848 0 1.643.124 2.387.372s1.395.63 1.953 1.147c.558.496.992 1.137 1.302 1.922.331.765.496 1.684.496 2.759s-.186 2.025-.558 2.852-.868 1.529-1.488 2.108c-.62.558-1.333.992-2.139 1.302-.785.289-1.612.434-2.48.434-.785 0-1.508-.083-2.17-.248-.64-.145-1.229-.341-1.767-.589-.516-.248-.992-.527-1.426-.837-.413-.331-.785-.672-1.116-1.023zm22.451-16.337h3.038l3.937 10.912 1.488 4.154h.124l1.426-4.154 3.906-10.912h3.038v20.336h-2.449v-11.191c0-.909.031-1.912.093-3.007.083-1.095.165-2.098.248-3.007h-.124l-1.643 4.526-3.906 10.633h-1.457l-3.937-10.633-1.612-4.526h-.124c.062.909.134 1.912.217 3.007s.124 2.098.124 3.007v11.191h-2.387zm21.532 16.43c0-1.653.733-2.914 2.201-3.782 1.488-.889 3.844-1.509 7.068-1.86 0-.475-.052-.94-.155-1.395-.083-.455-.248-.858-.496-1.209-.228-.351-.538-.63-.93-.837-.393-.227-.899-.341-1.519-.341-.889 0-1.716.165-2.48.496-.744.331-1.416.703-2.015 1.116l-1.023-1.767c.702-.455 1.56-.889 2.573-1.302 1.012-.434 2.128-.651 3.348-.651 1.839 0 3.172.568 3.999 1.705.826 1.116 1.24 2.614 1.24 4.495v9.238h-2.108l-.217-1.798h-.062c-.724.599-1.509 1.116-2.356 1.55-.827.413-1.705.62-2.635.62-1.282 0-2.346-.372-3.193-1.116-.827-.744-1.24-1.798-1.24-3.162zm2.511-.186c0 .868.248 1.488.744 1.86.516.372 1.147.558 1.891.558.723 0 1.405-.165 2.046-.496.661-.351 1.353-.858 2.077-1.519v-4.185c-1.261.165-2.325.362-3.193.589s-1.571.496-2.108.806c-.517.31-.889.672-1.116 1.085-.228.393-.341.827-.341 1.302zm14.096-10.974h2.108l.217 2.728h.093c.516-.951 1.136-1.705 1.86-2.263.744-.558 1.55-.837 2.418-.837.599 0 1.136.103 1.612.31l-.496 2.232c-.248-.083-.476-.145-.682-.186-.207-.041-.465-.062-.775-.062-.641 0-1.313.258-2.015.775-.682.517-1.282 1.416-1.798 2.697v9.672h-2.542zm15.711 13.547c1.488-1.488 2.811-2.831 3.968-4.03 1.158-1.199 2.129-2.304 2.914-3.317.786-1.033 1.385-1.974 1.798-2.821.414-.868.62-1.705.62-2.511 0-1.137-.31-2.067-.93-2.79s-1.56-1.085-2.821-1.085c-.826 0-1.591.238-2.294.713-.702.455-1.343 1.013-1.922 1.674l-1.457-1.457c.827-.909 1.705-1.633 2.635-2.17.93-.558 2.046-.837 3.348-.837 1.84 0 3.286.537 4.34 1.612 1.054 1.054 1.581 2.459 1.581 4.216 0 .93-.206 1.87-.62 2.821-.392.93-.95 1.901-1.674 2.914-.702.992-1.55 2.036-2.542 3.131-.971 1.075-2.046 2.222-3.224 3.441.538-.041 1.096-.083 1.674-.124.579-.041 1.127-.062 1.643-.062h5.735v2.201h-12.772zm16.619-.589h4.526v-14.57h-3.596v-1.643c.909-.165 1.694-.362 2.356-.589.682-.248 1.291-.537 1.829-.868h1.953v17.67h4.092v2.108h-11.16z"/><path d="m572.456 746.908c.599.62 1.292 1.168 2.077 1.643.806.475 1.798.713 2.976.713 1.199 0 2.18-.32 2.945-.961.765-.661 1.147-1.55 1.147-2.666 0-.579-.114-1.106-.341-1.581-.207-.496-.558-.92-1.054-1.271s-1.147-.62-1.953-.806-1.798-.279-2.976-.279v-1.953c1.054 0 1.932-.093 2.635-.279.723-.186 1.302-.444 1.736-.775.455-.331.775-.723.961-1.178s.279-.94.279-1.457c0-.971-.31-1.736-.93-2.294-.599-.558-1.426-.837-2.48-.837-.827 0-1.591.186-2.294.558-.682.372-1.323.858-1.922 1.457l-1.364-1.612c.765-.723 1.602-1.312 2.511-1.767.93-.475 1.984-.713 3.162-.713.868 0 1.664.114 2.387.341s1.343.558 1.86.992c.537.413.951.93 1.24 1.55s.434 1.333.434 2.139c0 1.199-.331 2.18-.992 2.945s-1.529 1.354-2.604 1.767v.124c.599.145 1.157.362 1.674.651.517.269.971.62 1.364 1.054.393.413.692.899.899 1.457.227.558.341 1.178.341 1.86 0 .868-.176 1.653-.527 2.356-.331.703-.796 1.302-1.395 1.798-.579.475-1.261.847-2.046 1.116-.785.248-1.633.372-2.542.372-.785 0-1.509-.083-2.17-.248-.641-.145-1.23-.341-1.767-.589-.537-.269-1.023-.568-1.457-.899-.413-.331-.785-.682-1.116-1.054zm21.02 4.464c-2.004 0-3.565-.889-4.681-2.666s-1.674-4.33-1.674-7.657.558-5.859 1.674-7.595 2.677-2.604 4.681-2.604c1.984 0 3.534.868 4.65 2.604s1.674 4.268 1.674 7.595-.558 5.88-1.674 7.657-2.666 2.666-4.65 2.666zm0-2.046c.579 0 1.096-.155 1.55-.465.476-.331.879-.827 1.209-1.488.352-.682.62-1.54.806-2.573.186-1.054.279-2.304.279-3.751s-.093-2.687-.279-3.72-.454-1.87-.806-2.511c-.33-.661-.733-1.147-1.209-1.457-.454-.31-.971-.465-1.55-.465-.578 0-1.105.155-1.581.465-.475.31-.888.796-1.24 1.457-.33.641-.589 1.478-.775 2.511s-.279 2.273-.279 3.72c0 2.893.352 5.001 1.054 6.324.724 1.302 1.664 1.953 2.821 1.953zm16.747-18.662h3.038l3.937 10.912 1.488 4.154h.124l1.426-4.154 3.906-10.912h3.038v20.336h-2.449v-11.191c0-.909.031-1.912.093-3.007.083-1.095.165-2.098.248-3.007h-.124l-1.643 4.526-3.906 10.633h-1.457l-3.937-10.633-1.612-4.526h-.124c.062.909.134 1.912.217 3.007s.124 2.098.124 3.007v11.191h-2.387zm21.532 16.43c0-1.653.733-2.914 2.201-3.782 1.488-.889 3.844-1.509 7.068-1.86 0-.475-.052-.94-.155-1.395-.083-.455-.248-.858-.496-1.209-.228-.351-.538-.63-.93-.837-.393-.227-.899-.341-1.519-.341-.889 0-1.716.165-2.48.496-.744.331-1.416.703-2.015 1.116l-1.023-1.767c.702-.455 1.56-.889 2.573-1.302 1.012-.434 2.128-.651 3.348-.651 1.839 0 3.172.568 3.999 1.705.826 1.116 1.24 2.614 1.24 4.495v9.238h-2.108l-.217-1.798h-.062c-.724.599-1.509 1.116-2.356 1.55-.827.413-1.705.62-2.635.62-1.282 0-2.346-.372-3.193-1.116-.827-.744-1.24-1.798-1.24-3.162zm2.511-.186c0 .868.248 1.488.744 1.86.516.372 1.147.558 1.891.558.723 0 1.405-.165 2.046-.496.661-.351 1.353-.858 2.077-1.519v-4.185c-1.261.165-2.325.362-3.193.589s-1.571.496-2.108.806c-.517.31-.889.672-1.116 1.085-.228.393-.341.827-.341 1.302zm14.096-10.974h2.108l.217 2.728h.093c.516-.951 1.136-1.705 1.86-2.263.744-.558 1.55-.837 2.418-.837.599 0 1.136.103 1.612.31l-.496 2.232c-.248-.083-.476-.145-.682-.186-.207-.041-.465-.062-.775-.062-.641 0-1.313.258-2.015.775-.682.517-1.282 1.416-1.798 2.697v9.672h-2.542zm15.711 13.547c1.488-1.488 2.811-2.831 3.968-4.03 1.158-1.199 2.129-2.304 2.914-3.317.786-1.033 1.385-1.974 1.798-2.821.414-.868.62-1.705.62-2.511 0-1.137-.31-2.067-.93-2.79s-1.56-1.085-2.821-1.085c-.826 0-1.591.238-2.294.713-.702.455-1.343 1.013-1.922 1.674l-1.457-1.457c.827-.909 1.705-1.633 2.635-2.17.93-.558 2.046-.837 3.348-.837 1.84 0 3.286.537 4.34 1.612 1.054 1.054 1.581 2.459 1.581 4.216 0 .93-.206 1.87-.62 2.821-.392.93-.95 1.901-1.674 2.914-.702.992-1.55 2.036-2.542 3.131-.971 1.075-2.046 2.222-3.224 3.441.538-.041 1.096-.083 1.674-.124.579-.041 1.127-.062 1.643-.062h5.735v2.201h-12.772zm16.619-.589h4.526v-14.57h-3.596v-1.643c.909-.165 1.694-.362 2.356-.589.682-.248 1.291-.537 1.829-.868h1.953v17.67h4.092v2.108h-11.16z"/><path d="m750.641 743.498v-5.735c0-.537.011-1.168.031-1.891.042-.744.083-1.385.124-1.922h-.124c-.248.475-.506.94-.775 1.395-.268.455-.547.92-.837 1.395l-4.619 6.758zm5.115 2.046h-2.697v5.456h-2.418v-5.456h-8.897v-1.674l8.463-12.648h2.852v12.276h2.697zm18.576-2.821-.961-3.1c-.372-1.137-.723-2.263-1.054-3.379-.331-1.137-.661-2.294-.992-3.472h-.124c-.31 1.178-.63 2.335-.961 3.472-.331 1.116-.682 2.242-1.054 3.379l-.961 3.1zm.651 2.077h-7.409l-1.953 6.2h-2.635l6.882-20.336h2.914l6.882 20.336h-2.759zm9.856 7.471v5.084h-2.542v-21.421h2.108l.217 1.736h.093c.682-.579 1.426-1.075 2.232-1.488.827-.413 1.685-.62 2.573-.62.972 0 1.829.186 2.573.558.744.351 1.364.868 1.86 1.55.496.661.868 1.467 1.116 2.418.269.93.403 1.984.403 3.162 0 1.281-.175 2.428-.527 3.441-.351.992-.826 1.839-1.426 2.542-.599.703-1.291 1.24-2.077 1.612-.785.351-1.612.527-2.48.527-.702 0-1.405-.155-2.108-.465-.682-.31-1.374-.734-2.077-1.271zm0-4.619c.682.579 1.344.992 1.984 1.24.641.227 1.209.341 1.705.341.62 0 1.189-.134 1.705-.403.538-.289.992-.682 1.364-1.178.393-.517.693-1.147.899-1.891.228-.744.341-1.581.341-2.511 0-.827-.072-1.581-.217-2.263-.144-.682-.382-1.261-.713-1.736-.31-.496-.723-.878-1.24-1.147-.496-.269-1.095-.403-1.798-.403-.64 0-1.291.176-1.953.527-.64.351-1.333.858-2.077 1.519zm14.654-11.718h2.108l.217 2.728h.093c.516-.951 1.136-1.705 1.86-2.263.744-.558 1.55-.837 2.418-.837.599 0 1.136.103 1.612.31l-.496 2.232c-.248-.083-.476-.145-.682-.186-.207-.041-.465-.062-.775-.062-.641 0-1.313.258-2.015.775-.682.517-1.282 1.416-1.798 2.697v9.672h-2.542zm15.711 13.547c1.488-1.488 2.811-2.831 3.968-4.03 1.158-1.199 2.129-2.304 2.914-3.317.786-1.033 1.385-1.974 1.798-2.821.414-.868.62-1.705.62-2.511 0-1.137-.31-2.067-.93-2.79s-1.56-1.085-2.821-1.085c-.826 0-1.591.238-2.294.713-.702.455-1.343 1.013-1.922 1.674l-1.457-1.457c.827-.909 1.705-1.633 2.635-2.17.93-.558 2.046-.837 3.348-.837 1.84 0 3.286.537 4.34 1.612 1.054 1.054 1.581 2.459 1.581 4.216 0 .93-.206 1.87-.62 2.821-.392.93-.95 1.901-1.674 2.914-.702.992-1.55 2.036-2.542 3.131-.971 1.075-2.046 2.222-3.224 3.441.538-.041 1.096-.083 1.674-.124.579-.041 1.127-.062 1.643-.062h5.735v2.201h-12.772zm16.619-.589h4.526v-14.57h-3.596v-1.643c.909-.165 1.694-.362 2.356-.589.682-.248 1.291-.537 1.829-.868h1.953v17.67h4.092v2.108h-11.16z"/><path d="m899.636 741.39c.64 0 1.322-.196 2.046-.589.744-.413 1.446-1.095 2.108-2.046-.166-1.943-.62-3.41-1.364-4.402s-1.747-1.488-3.007-1.488c-.476 0-.93.103-1.364.31-.414.207-.775.506-1.085.899-.31.372-.558.827-.744 1.364-.166.537-.248 1.126-.248 1.767 0 1.302.299 2.325.899 3.069.599.744 1.519 1.116 2.759 1.116zm-4.278 6.293c.413.475.899.858 1.457 1.147.578.289 1.178.434 1.798.434.702 0 1.364-.145 1.984-.434s1.167-.765 1.643-1.426c.475-.682.857-1.56 1.147-2.635.289-1.075.444-2.408.465-3.999-.62.785-1.344 1.405-2.17 1.86-.827.455-1.654.682-2.48.682-1.716 0-3.08-.506-4.092-1.519-1.013-1.013-1.519-2.542-1.519-4.588 0-.951.155-1.808.465-2.573.31-.785.723-1.457 1.24-2.015.537-.558 1.157-.992 1.86-1.302.723-.31 1.477-.465 2.263-.465.971 0 1.87.196 2.697.589.847.393 1.57.992 2.17 1.798.62.785 1.095 1.777 1.426 2.976.351 1.178.527 2.563.527 4.154 0 1.984-.207 3.679-.62 5.084-.414 1.385-.972 2.521-1.674 3.41-.703.868-1.509 1.509-2.418 1.922-.889.393-1.829.589-2.821.589-1.054 0-1.984-.196-2.79-.589-.786-.393-1.447-.889-1.984-1.488zm30.107-4.96-.961-3.1c-.372-1.137-.723-2.263-1.054-3.379-.33-1.137-.661-2.294-.992-3.472h-.124c-.31 1.178-.63 2.335-.961 3.472-.33 1.116-.682 2.242-1.054 3.379l-.961 3.1zm.651 2.077h-7.409l-1.953 6.2h-2.635l6.882-20.336h2.914l6.882 20.336h-2.759zm9.857 7.471v5.084h-2.542v-21.421h2.108l.217 1.736h.093c.682-.579 1.426-1.075 2.232-1.488.826-.413 1.684-.62 2.573-.62.971 0 1.829.186 2.573.558.744.351 1.364.868 1.86 1.55.496.661.868 1.467 1.116 2.418.268.93.403 1.984.403 3.162 0 1.281-.176 2.428-.527 3.441-.352.992-.827 1.839-1.426 2.542-.6.703-1.292 1.24-2.077 1.612-.786.351-1.612.527-2.48.527-.703 0-1.406-.155-2.108-.465-.682-.31-1.375-.734-2.077-1.271zm0-4.619c.682.579 1.343.992 1.984 1.24.64.227 1.209.341 1.705.341.62 0 1.188-.134 1.705-.403.537-.289.992-.682 1.364-1.178.392-.517.692-1.147.899-1.891.227-.744.341-1.581.341-2.511 0-.827-.073-1.581-.217-2.263-.145-.682-.383-1.261-.713-1.736-.31-.496-.724-.878-1.24-1.147-.496-.269-1.096-.403-1.798-.403-.641 0-1.292.176-1.953.527-.641.351-1.333.858-2.077 1.519zm14.653-11.718h2.108l.217 2.728h.093c.517-.951 1.137-1.705 1.86-2.263.744-.558 1.55-.837 2.418-.837.599 0 1.137.103 1.612.31l-.496 2.232c-.248-.083-.475-.145-.682-.186s-.465-.062-.775-.062c-.641 0-1.312.258-2.015.775-.682.517-1.281 1.416-1.798 2.697v9.672h-2.542zm9.445 13.547c1.488-1.488 2.811-2.831 3.968-4.03s2.129-2.304 2.914-3.317c.785-1.033 1.385-1.974 1.798-2.821.413-.868.62-1.705.62-2.511 0-1.137-.31-2.067-.93-2.79s-1.56-1.085-2.821-1.085c-.827 0-1.591.238-2.294.713-.703.455-1.343 1.013-1.922 1.674l-1.457-1.457c.827-.909 1.705-1.633 2.635-2.17.93-.558 2.046-.837 3.348-.837 1.839 0 3.286.537 4.34 1.612 1.054 1.054 1.581 2.459 1.581 4.216 0 .93-.207 1.87-.62 2.821-.393.93-.951 1.901-1.674 2.914-.703.992-1.55 2.036-2.542 3.131-.971 1.075-2.046 2.222-3.224 3.441.537-.041 1.095-.083 1.674-.124s1.126-.062 1.643-.062h5.735v2.201h-12.772zm16.618-.589h4.526v-14.57h-3.596v-1.643c.91-.165 1.695-.362 2.356-.589.682-.248 1.292-.537 1.829-.868h1.953v17.67h4.092v2.108h-11.16z"/><path d="m1039.46 748.892h4.53v-14.57h-3.6v-1.643c.91-.165 1.7-.362 2.36-.589.68-.248 1.29-.537 1.83-.868h1.95v17.67h4.09v2.108h-11.16zm22.39-5.394v-5.735c0-.537.01-1.168.03-1.891.04-.744.08-1.385.12-1.922h-.12c-.25.475-.51.94-.78 1.395s-.55.92-.84 1.395l-4.61 6.758zm5.11 2.046h-2.7v5.456h-2.41v-5.456h-8.9v-1.674l8.46-12.648h2.85v12.276h2.7zm18.58-2.821-.96-3.1c-.38-1.137-.73-2.263-1.06-3.379-.33-1.137-.66-2.294-.99-3.472h-.12c-.31 1.178-.63 2.335-.97 3.472-.33 1.116-.68 2.242-1.05 3.379l-.96 3.1zm.65 2.077h-7.41l-1.95 6.2h-2.64l6.88-20.336h2.92l6.88 20.336h-2.76zm9.85 7.471v5.084h-2.54v-21.421h2.11l.22 1.736h.09c.68-.579 1.43-1.075 2.23-1.488.83-.413 1.69-.62 2.57-.62.98 0 1.83.186 2.58.558.74.351 1.36.868 1.86 1.55.49.661.87 1.467 1.11 2.418.27.93.41 1.984.41 3.162 0 1.281-.18 2.428-.53 3.441-.35.992-.83 1.839-1.43 2.542s-1.29 1.24-2.07 1.612c-.79.351-1.62.527-2.48.527-.71 0-1.41-.155-2.11-.465-.68-.31-1.38-.734-2.08-1.271zm0-4.619c.69.579 1.35.992 1.99 1.24.64.227 1.21.341 1.7.341.62 0 1.19-.134 1.71-.403.54-.289.99-.682 1.36-1.178.39-.517.69-1.147.9-1.891.23-.744.34-1.581.34-2.511 0-.827-.07-1.581-.22-2.263-.14-.682-.38-1.261-.71-1.736-.31-.496-.72-.878-1.24-1.147-.49-.269-1.09-.403-1.8-.403-.64 0-1.29.176-1.95.527-.64.351-1.33.858-2.08 1.519zm14.66-11.718h2.11l.21 2.728h.1c.51-.951 1.13-1.705 1.86-2.263.74-.558 1.55-.837 2.41-.837.6 0 1.14.103 1.62.31l-.5 2.232c-.25-.083-.48-.145-.68-.186-.21-.041-.47-.062-.78-.062-.64 0-1.31.258-2.01.775-.68.517-1.28 1.416-1.8 2.697v9.672h-2.54zm15.71 13.547c1.49-1.488 2.81-2.831 3.97-4.03 1.15-1.199 2.13-2.304 2.91-3.317.79-1.033 1.39-1.974 1.8-2.821.41-.868.62-1.705.62-2.511 0-1.137-.31-2.067-.93-2.79s-1.56-1.085-2.82-1.085c-.83 0-1.59.238-2.3.713-.7.455-1.34 1.013-1.92 1.674l-1.46-1.457c.83-.909 1.71-1.633 2.64-2.17.93-.558 2.05-.837 3.35-.837 1.84 0 3.28.537 4.34 1.612 1.05 1.054 1.58 2.459 1.58 4.216 0 .93-.21 1.87-.62 2.821-.39.93-.95 1.901-1.68 2.914-.7.992-1.55 2.036-2.54 3.131-.97 1.075-2.04 2.222-3.22 3.441.54-.041 1.09-.083 1.67-.124s1.13-.062 1.65-.062h5.73v2.201h-12.77zm16.62-.589h4.52v-14.57h-3.59v-1.643c.91-.165 1.69-.362 2.35-.589.69-.248 1.29-.537 1.83-.868h1.96v17.67h4.09v2.108h-11.16z"/><path d="m1206.46 748.892h4.53v-14.57h-3.6v-1.643c.91-.165 1.7-.362 2.36-.589.68-.248 1.29-.537 1.83-.868h1.95v17.67h4.09v2.108h-11.16zm20.25-7.502c.64 0 1.32-.196 2.04-.589.75-.413 1.45-1.095 2.11-2.046-.16-1.943-.62-3.41-1.36-4.402-.75-.992-1.75-1.488-3.01-1.488-.48 0-.93.103-1.36.31-.42.207-.78.506-1.09.899-.31.372-.56.827-.74 1.364-.17.537-.25 1.126-.25 1.767 0 1.302.3 2.325.9 3.069s1.52 1.116 2.76 1.116zm-4.28 6.293c.41.475.9.858 1.46 1.147.57.289 1.17.434 1.79.434.71 0 1.37-.145 1.99-.434s1.17-.765 1.64-1.426c.48-.682.86-1.56 1.15-2.635s.44-2.408.46-3.999c-.62.785-1.34 1.405-2.17 1.86-.82.455-1.65.682-2.48.682-1.71 0-3.08-.506-4.09-1.519s-1.52-2.542-1.52-4.588c0-.951.16-1.808.47-2.573.31-.785.72-1.457 1.24-2.015.53-.558 1.15-.992 1.86-1.302.72-.31 1.47-.465 2.26-.465.97 0 1.87.196 2.7.589.84.393 1.57.992 2.17 1.798.62.785 1.09 1.777 1.42 2.976.35 1.178.53 2.563.53 4.154 0 1.984-.21 3.679-.62 5.084-.41 1.385-.97 2.521-1.67 3.41-.71.868-1.51 1.509-2.42 1.922-.89.393-1.83.589-2.82.589-1.06 0-1.99-.196-2.79-.589-.79-.393-1.45-.889-1.99-1.488zm30.11-4.96-.96-3.1c-.38-1.137-.73-2.263-1.06-3.379-.33-1.137-.66-2.294-.99-3.472h-.12c-.31 1.178-.63 2.335-.97 3.472-.33 1.116-.68 2.242-1.05 3.379l-.96 3.1zm.65 2.077h-7.41l-1.95 6.2h-2.64l6.88-20.336h2.92l6.88 20.336h-2.76zm9.85 7.471v5.084h-2.54v-21.421h2.11l.22 1.736h.09c.68-.579 1.43-1.075 2.23-1.488.83-.413 1.69-.62 2.57-.62.98 0 1.83.186 2.58.558.74.351 1.36.868 1.86 1.55.49.661.87 1.467 1.11 2.418.27.93.41 1.984.41 3.162 0 1.281-.18 2.428-.53 3.441-.35.992-.83 1.839-1.43 2.542s-1.29 1.24-2.07 1.612c-.79.351-1.62.527-2.48.527-.71 0-1.41-.155-2.11-.465-.68-.31-1.38-.734-2.08-1.271zm0-4.619c.69.579 1.35.992 1.99 1.24.64.227 1.21.341 1.7.341.62 0 1.19-.134 1.71-.403.54-.289.99-.682 1.36-1.178.39-.517.69-1.147.9-1.891.23-.744.34-1.581.34-2.511 0-.827-.07-1.581-.22-2.263-.14-.682-.38-1.261-.71-1.736-.31-.496-.72-.878-1.24-1.147-.49-.269-1.09-.403-1.8-.403-.64 0-1.29.176-1.95.527-.64.351-1.33.858-2.08 1.519zm14.66-11.718h2.11l.21 2.728h.1c.51-.951 1.13-1.705 1.86-2.263.74-.558 1.55-.837 2.41-.837.6 0 1.14.103 1.62.31l-.5 2.232c-.25-.083-.48-.145-.68-.186-.21-.041-.47-.062-.78-.062-.64 0-1.31.258-2.01.775-.68.517-1.28 1.416-1.8 2.697v9.672h-2.54zm15.71 13.547c1.49-1.488 2.81-2.831 3.97-4.03 1.15-1.199 2.13-2.304 2.91-3.317.79-1.033 1.39-1.974 1.8-2.821.41-.868.62-1.705.62-2.511 0-1.137-.31-2.067-.93-2.79s-1.56-1.085-2.82-1.085c-.83 0-1.59.238-2.3.713-.7.455-1.34 1.013-1.92 1.674l-1.46-1.457c.83-.909 1.71-1.633 2.64-2.17.93-.558 2.05-.837 3.35-.837 1.84 0 3.28.537 4.34 1.612 1.05 1.054 1.58 2.459 1.58 4.216 0 .93-.21 1.87-.62 2.821-.39.93-.95 1.901-1.68 2.914-.7.992-1.55 2.036-2.54 3.131-.97 1.075-2.04 2.222-3.22 3.441.54-.041 1.09-.083 1.67-.124s1.13-.062 1.65-.062h5.73v2.201h-12.77zm16.62-.589h4.52v-14.57h-3.59v-1.643c.91-.165 1.69-.362 2.35-.589.69-.248 1.29-.537 1.83-.868h1.96v17.67h4.09v2.108h-11.16z"/><path d="m17.7516 626.908c.5993.62 1.2916 1.168 2.077 1.643.806.475 1.798.713 2.976.713 1.1986 0 2.1803-.32 2.945-.961.7646-.661 1.147-1.55 1.147-2.666 0-.579-.1137-1.106-.341-1.581-.2067-.496-.558-.92-1.054-1.271s-1.147-.62-1.953-.806-1.798-.279-2.976-.279v-1.953c1.054 0 1.9323-.093 2.635-.279.7233-.186 1.302-.444 1.736-.775.4546-.331.775-.723.961-1.178s.279-.94.279-1.457c0-.971-.31-1.736-.93-2.294-.5994-.558-1.426-.837-2.48-.837-.8267 0-1.5914.186-2.294.558-.682.372-1.3227.858-1.922 1.457l-1.364-1.612c.7646-.723 1.6016-1.312 2.511-1.767.93-.475 1.984-.713 3.162-.713.868 0 1.6636.114 2.387.341.7233.227 1.3433.558 1.86.992.5373.413.9506.93 1.24 1.55.2893.62.434 1.333.434 2.139 0 1.199-.3307 2.18-.992 2.945-.6614.765-1.5294 1.354-2.604 1.767v.124c.5993.145 1.1573.362 1.674.651.5166.269.9713.62 1.364 1.054.3926.413.6923.899.899 1.457.2273.558.341 1.178.341 1.86 0 .868-.1757 1.653-.527 2.356-.3307.703-.7957 1.302-1.395 1.798-.5787.475-1.2607.847-2.046 1.116-.7854.248-1.6327.372-2.542.372-.7854 0-1.5087-.083-2.17-.248-.6407-.145-1.2297-.341-1.767-.589-.5374-.269-1.023-.568-1.457-.899-.4134-.331-.7854-.682-1.116-1.054zm14.7581 7.874c.868-.393 1.55-.909 2.046-1.55s.744-1.385.744-2.232c-.062.021-.1653.031-.31.031-.496 0-.93-.145-1.302-.434-.3513-.31-.527-.754-.527-1.333 0-.558.186-.992.558-1.302.372-.331.8164-.496 1.333-.496.6614 0 1.178.269 1.55.806.3927.537.589 1.271.589 2.201 0 1.343-.3616 2.511-1.085 3.503-.7233.992-1.7153 1.757-2.976 2.294zm13.5478-13.392c.6406 0 1.3226-.196 2.046-.589.744-.413 1.4466-1.095 2.108-2.046-.1654-1.943-.62-3.41-1.364-4.402s-1.7464-1.488-3.007-1.488c-.4754 0-.93.103-1.364.31-.4134.207-.775.506-1.085.899-.31.372-.558.827-.744 1.364-.1654.537-.248 1.126-.248 1.767 0 1.302.2996 2.325.899 3.069.5993.744 1.519 1.116 2.759 1.116zm-4.278 6.293c.4133.475.899.858 1.457 1.147.5786.289 1.178.434 1.798.434.7026 0 1.364-.145 1.984-.434s1.1676-.765 1.643-1.426c.4753-.682.8576-1.56 1.147-2.635.2893-1.075.4443-2.408.465-3.999-.62.785-1.3434 1.405-2.17 1.86-.8267.455-1.6534.682-2.48.682-1.7154 0-3.0794-.506-4.092-1.519-1.0127-1.013-1.519-2.542-1.519-4.588 0-.951.155-1.808.465-2.573.31-.785.7233-1.457 1.24-2.015.5373-.558 1.1573-.992 1.86-1.302.7233-.31 1.4776-.465 2.263-.465.9713 0 1.8703.196 2.697.589.8473.393 1.5706.992 2.17 1.798.62.785 1.0953 1.777 1.426 2.976.3513 1.178.527 2.563.527 4.154 0 1.984-.2067 3.679-.62 5.084-.4134 1.385-.9714 2.521-1.674 3.41-.7027.868-1.5087 1.509-2.418 1.922-.8887.393-1.829.589-2.821.589-1.054 0-1.984-.196-2.79-.589-.7854-.393-1.4467-.889-1.984-1.488zm20.1211 3.689c-2.0046 0-3.565-.889-4.681-2.666s-1.674-4.33-1.674-7.657.558-5.859 1.674-7.595 2.6764-2.604 4.681-2.604c1.984 0 3.534.868 4.65 2.604s1.674 4.268 1.674 7.595-.558 5.88-1.674 7.657-2.666 2.666-4.65 2.666zm0-2.046c.5787 0 1.0954-.155 1.55-.465.4754-.331.8784-.827 1.209-1.488.3514-.682.62-1.54.806-2.573.186-1.054.279-2.304.279-3.751s-.093-2.687-.279-3.72-.4546-1.87-.806-2.511c-.3306-.661-.7336-1.147-1.209-1.457-.4546-.31-.9713-.465-1.55-.465-.5786 0-1.1056.155-1.581.465-.4753.31-.8886.796-1.24 1.457-.3306.641-.589 1.478-.775 2.511s-.279 2.273-.279 3.72c0 2.893.3514 5.001 1.054 6.324.7234 1.302 1.6637 1.953 2.821 1.953zm15.4092 2.046c-2.0046 0-3.565-.889-4.681-2.666s-1.674-4.33-1.674-7.657.558-5.859 1.674-7.595 2.6764-2.604 4.681-2.604c1.984 0 3.534.868 4.65 2.604s1.674 4.268 1.674 7.595-.558 5.88-1.674 7.657-2.666 2.666-4.65 2.666zm0-2.046c.5787 0 1.0954-.155 1.55-.465.4754-.331.8784-.827 1.209-1.488.3514-.682.62-1.54.806-2.573.186-1.054.279-2.304.279-3.751s-.093-2.687-.279-3.72-.4546-1.87-.806-2.511c-.3306-.661-.7336-1.147-1.209-1.457-.4546-.31-.9713-.465-1.55-.465-.5786 0-1.1056.155-1.581.465-.4753.31-.8886.796-1.24 1.457-.3306.641-.589 1.478-.775 2.511s-.279 2.273-.279 3.72c0 2.893.3514 5.001 1.054 6.324.7234 1.302 1.6637 1.953 2.821 1.953z"/><path d="m25.0676 548.498v-5.735c0-.537.0103-1.168.031-1.891.0413-.744.0826-1.385.124-1.922h-.124c-.248.475-.5064.94-.775 1.395-.2687.455-.5477.92-.837 1.395l-4.619 6.758zm5.115 2.046h-2.697v5.456h-2.418v-5.456h-8.897v-1.674l8.463-12.648h2.852v12.276h2.697zm2.3271 9.238c.868-.393 1.55-.909 2.046-1.55s.744-1.385.744-2.232c-.062.021-.1653.031-.31.031-.496 0-.93-.145-1.302-.434-.3513-.31-.527-.754-.527-1.333 0-.558.186-.992.558-1.302.372-.331.8164-.496 1.333-.496.6614 0 1.178.269 1.55.806.3927.537.589 1.271.589 2.201 0 1.343-.3616 2.511-1.085 3.503-.7233.992-1.7153 1.757-2.976 2.294zm13.5478-13.392c.6406 0 1.3226-.196 2.046-.589.744-.413 1.4466-1.095 2.108-2.046-.1654-1.943-.62-3.41-1.364-4.402s-1.7464-1.488-3.007-1.488c-.4754 0-.93.103-1.364.31-.4134.207-.775.506-1.085.899-.31.372-.558.827-.744 1.364-.1654.537-.248 1.126-.248 1.767 0 1.302.2996 2.325.899 3.069.5993.744 1.519 1.116 2.759 1.116zm-4.278 6.293c.4133.475.899.858 1.457 1.147.5786.289 1.178.434 1.798.434.7026 0 1.364-.145 1.984-.434s1.1676-.765 1.643-1.426c.4753-.682.8576-1.56 1.147-2.635.2893-1.075.4443-2.408.465-3.999-.62.785-1.3434 1.405-2.17 1.86-.8267.455-1.6534.682-2.48.682-1.7154 0-3.0794-.506-4.092-1.519-1.0127-1.013-1.519-2.542-1.519-4.588 0-.951.155-1.808.465-2.573.31-.785.7233-1.457 1.24-2.015.5373-.558 1.1573-.992 1.86-1.302.7233-.31 1.4776-.465 2.263-.465.9713 0 1.8703.196 2.697.589.8473.393 1.5706.992 2.17 1.798.62.785 1.0953 1.777 1.426 2.976.3513 1.178.527 2.563.527 4.154 0 1.984-.2067 3.679-.62 5.084-.4134 1.385-.9714 2.521-1.674 3.41-.7027.868-1.5087 1.509-2.418 1.922-.8887.393-1.829.589-2.821.589-1.054 0-1.984-.196-2.79-.589-.7854-.393-1.4467-.889-1.984-1.488zm20.1211 3.689c-2.0046 0-3.565-.889-4.681-2.666s-1.674-4.33-1.674-7.657.558-5.859 1.674-7.595 2.6764-2.604 4.681-2.604c1.984 0 3.534.868 4.65 2.604s1.674 4.268 1.674 7.595-.558 5.88-1.674 7.657-2.666 2.666-4.65 2.666zm0-2.046c.5787 0 1.0954-.155 1.55-.465.4754-.331.8784-.827 1.209-1.488.3514-.682.62-1.54.806-2.573.186-1.054.279-2.304.279-3.751s-.093-2.687-.279-3.72-.4546-1.87-.806-2.511c-.3306-.661-.7336-1.147-1.209-1.457-.4546-.31-.9713-.465-1.55-.465-.5786 0-1.1056.155-1.581.465-.4753.31-.8886.796-1.24 1.457-.3306.641-.589 1.478-.775 2.511s-.279 2.273-.279 3.72c0 2.893.3514 5.001 1.054 6.324.7234 1.302 1.6637 1.953 2.821 1.953zm15.4092 2.046c-2.0046 0-3.565-.889-4.681-2.666s-1.674-4.33-1.674-7.657.558-5.859 1.674-7.595 2.6764-2.604 4.681-2.604c1.984 0 3.534.868 4.65 2.604s1.674 4.268 1.674 7.595-.558 5.88-1.674 7.657-2.666 2.666-4.65 2.666zm0-2.046c.5787 0 1.0954-.155 1.55-.465.4754-.331.8784-.827 1.209-1.488.3514-.682.62-1.54.806-2.573.186-1.054.279-2.304.279-3.751s-.093-2.687-.279-3.72-.4546-1.87-.806-2.511c-.3306-.661-.7336-1.147-1.209-1.457-.4546-.31-.9713-.465-1.55-.465-.5786 0-1.1056.155-1.581.465-.4753.31-.8886.796-1.24 1.457-.3306.641-.589 1.478-.775 2.511s-.279 2.273-.279 3.72c0 2.893.3514 5.001 1.054 6.324.7234 1.302 1.6637 1.953 2.821 1.953z"/><path d="m17.6586 477.001c.5786.599 1.2606 1.126 2.046 1.581.806.455 1.7876.682 2.945.682.5993 0 1.1573-.103 1.674-.31.5373-.227 1.0023-.537 1.395-.93.3926-.393.7026-.868.93-1.426.2273-.558.341-1.178.341-1.86 0-1.364-.3824-2.428-1.147-3.193-.7647-.765-1.7877-1.147-3.069-1.147-.682 0-1.271.103-1.767.31-.4754.207-1.0127.506-1.612.899l-1.364-.868.651-9.517h9.889v2.201h-7.657l-.527 5.859c.4753-.248.9506-.444 1.426-.589.4753-.145 1.0126-.217 1.612-.217.8473 0 1.643.124 2.387.372s1.395.63 1.953 1.147c.558.496.992 1.137 1.302 1.922.3306.765.496 1.684.496 2.759s-.186 2.025-.558 2.852-.868 1.529-1.488 2.108c-.62.558-1.333.992-2.139 1.302-.7854.289-1.612.434-2.48.434-.7854 0-1.5087-.083-2.17-.248-.6407-.145-1.2297-.341-1.767-.589-.5167-.248-.992-.527-1.426-.837-.4134-.331-.7854-.672-1.116-1.023zm14.8511 7.781c.868-.393 1.55-.909 2.046-1.55s.744-1.385.744-2.232c-.062.021-.1653.031-.31.031-.496 0-.93-.145-1.302-.434-.3513-.31-.527-.754-.527-1.333 0-.558.186-.992.558-1.302.372-.331.8164-.496 1.333-.496.6614 0 1.178.269 1.55.806.3927.537.589 1.271.589 2.201 0 1.343-.3616 2.511-1.085 3.503-.7233.992-1.7153 1.757-2.976 2.294zm13.5478-13.392c.6406 0 1.3226-.196 2.046-.589.744-.413 1.4466-1.095 2.108-2.046-.1654-1.943-.62-3.41-1.364-4.402s-1.7464-1.488-3.007-1.488c-.4754 0-.93.103-1.364.31-.4134.207-.775.506-1.085.899-.31.372-.558.827-.744 1.364-.1654.537-.248 1.126-.248 1.767 0 1.302.2996 2.325.899 3.069.5993.744 1.519 1.116 2.759 1.116zm-4.278 6.293c.4133.475.899.858 1.457 1.147.5786.289 1.178.434 1.798.434.7026 0 1.364-.145 1.984-.434s1.1676-.765 1.643-1.426c.4753-.682.8576-1.56 1.147-2.635.2893-1.075.4443-2.408.465-3.999-.62.785-1.3434 1.405-2.17 1.86-.8267.455-1.6534.682-2.48.682-1.7154 0-3.0794-.506-4.092-1.519-1.0127-1.013-1.519-2.542-1.519-4.588 0-.951.155-1.808.465-2.573.31-.785.7233-1.457 1.24-2.015.5373-.558 1.1573-.992 1.86-1.302.7233-.31 1.4776-.465 2.263-.465.9713 0 1.8703.196 2.697.589.8473.393 1.5706.992 2.17 1.798.62.785 1.0953 1.777 1.426 2.976.3513 1.178.527 2.563.527 4.154 0 1.984-.2067 3.679-.62 5.084-.4134 1.385-.9714 2.521-1.674 3.41-.7027.868-1.5087 1.509-2.418 1.922-.8887.393-1.829.589-2.821.589-1.054 0-1.984-.196-2.79-.589-.7854-.393-1.4467-.889-1.984-1.488zm20.1211 3.689c-2.0046 0-3.565-.889-4.681-2.666s-1.674-4.33-1.674-7.657.558-5.859 1.674-7.595 2.6764-2.604 4.681-2.604c1.984 0 3.534.868 4.65 2.604s1.674 4.268 1.674 7.595-.558 5.88-1.674 7.657-2.666 2.666-4.65 2.666zm0-2.046c.5787 0 1.0954-.155 1.55-.465.4754-.331.8784-.827 1.209-1.488.3514-.682.62-1.54.806-2.573.186-1.054.279-2.304.279-3.751s-.093-2.687-.279-3.72-.4546-1.87-.806-2.511c-.3306-.661-.7336-1.147-1.209-1.457-.4546-.31-.9713-.465-1.55-.465-.5786 0-1.1056.155-1.581.465-.4753.31-.8886.796-1.24 1.457-.3306.641-.589 1.478-.775 2.511s-.279 2.273-.279 3.72c0 2.893.3514 5.001 1.054 6.324.7234 1.302 1.6637 1.953 2.821 1.953zm15.4092 2.046c-2.0046 0-3.565-.889-4.681-2.666s-1.674-4.33-1.674-7.657.558-5.859 1.674-7.595 2.6764-2.604 4.681-2.604c1.984 0 3.534.868 4.65 2.604s1.674 4.268 1.674 7.595-.558 5.88-1.674 7.657-2.666 2.666-4.65 2.666zm0-2.046c.5787 0 1.0954-.155 1.55-.465.4754-.331.8784-.827 1.209-1.488.3514-.682.62-1.54.806-2.573.186-1.054.279-2.304.279-3.751s-.093-2.687-.279-3.72-.4546-1.87-.806-2.511c-.3306-.661-.7336-1.147-1.209-1.457-.4546-.31-.9713-.465-1.55-.465-.5786 0-1.1056.155-1.581.465-.4753.31-.8886.796-1.24 1.457-.3306.641-.589 1.478-.775 2.511s-.279 2.273-.279 3.72c0 2.893.3514 5.001 1.054 6.324.7234 1.302 1.6637 1.953 2.821 1.953z"/><path d="m2.68338 103.892h4.526v-14.57h-3.596v-1.643c.90933-.1653 1.69466-.3617 2.356-.589.682-.248 1.29166-.5373 1.829-.868h1.953v17.67h4.09202v2.108h-11.16002zm20.67922 2.48c-2.0047 0-3.565-.889-4.681-2.666s-1.674-4.3297-1.674-7.657.558-5.859 1.674-7.595 2.6763-2.604 4.681-2.604c1.984 0 3.534.868 4.65 2.604s1.674 4.2677 1.674 7.595-.558 5.88-1.674 7.657-2.666 2.666-4.65 2.666zm0-2.046c.5786 0 1.0953-.155 1.55-.465.4753-.331.8783-.827 1.209-1.488.3513-.682.62-1.54.806-2.573.186-1.054.279-2.3043.279-3.751s-.093-2.6867-.279-3.72-.4547-1.8703-.806-2.511c-.3307-.6613-.7337-1.147-1.209-1.457-.4547-.31-.9714-.465-1.55-.465-.5787 0-1.1057.155-1.581.465-.4754.31-.8887.7957-1.24 1.457-.3307.6407-.589 1.4777-.775 2.511s-.279 2.2733-.279 3.72c0 2.8933.3513 5.001 1.054 6.324.7233 1.302 1.6636 1.953 2.821 1.953zm9.1471 5.456c.868-.393 1.55-.909 2.046-1.55s.744-1.385.744-2.232c-.062.021-.1653.031-.31.031-.496 0-.93-.145-1.302-.434-.3513-.31-.527-.754-.527-1.333 0-.558.186-.992.558-1.302.372-.331.8164-.496 1.333-.496.6614 0 1.178.269 1.55.806.3927.537.589 1.271.589 2.201 0 1.343-.3616 2.511-1.085 3.503-.7233.992-1.7153 1.757-2.976 2.294zm13.5478-13.392c.6406 0 1.3226-.1963 2.046-.589.744-.4133 1.4466-1.0953 2.108-2.046-.1654-1.9427-.62-3.41-1.364-4.402s-1.7464-1.488-3.007-1.488c-.4754 0-.93.1033-1.364.31-.4134.2067-.775.5063-1.085.899-.31.372-.558.8267-.744 1.364-.1654.5373-.248 1.1263-.248 1.767 0 1.302.2996 2.325.899 3.069.5993.744 1.519 1.116 2.759 1.116zm-4.278 6.293c.4133.475.899.858 1.457 1.147.5786.289 1.178.434 1.798.434.7026 0 1.364-.145 1.984-.434s1.1676-.765 1.643-1.426c.4753-.682.8576-1.56 1.147-2.635.2893-1.0747.4443-2.4077.465-3.999-.62.7853-1.3434 1.4053-2.17 1.86-.8267.4547-1.6534.682-2.48.682-1.7154 0-3.0794-.5063-4.092-1.519-1.0127-1.0127-1.519-2.542-1.519-4.588 0-.9507.155-1.8083.465-2.573.31-.7853.7233-1.457 1.24-2.015.5373-.558 1.1573-.992 1.86-1.302.7233-.31 1.4776-.465 2.263-.465.9713 0 1.8703.1963 2.697.589.8473.3927 1.5706.992 2.17 1.798.62.7853 1.0953 1.7773 1.426 2.976.3513 1.178.527 2.5627.527 4.154 0 1.984-.2067 3.6787-.62 5.084-.4134 1.385-.9714 2.521-1.674 3.41-.7027.868-1.5087 1.509-2.418 1.922-.8887.393-1.829.589-2.821.589-1.054 0-1.984-.196-2.79-.589-.7854-.393-1.4467-.889-1.984-1.488zm20.1211 3.689c-2.0046 0-3.565-.889-4.681-2.666s-1.674-4.3297-1.674-7.657.558-5.859 1.674-7.595 2.6764-2.604 4.681-2.604c1.984 0 3.534.868 4.65 2.604s1.674 4.2677 1.674 7.595-.558 5.88-1.674 7.657-2.666 2.666-4.65 2.666zm0-2.046c.5787 0 1.0954-.155 1.55-.465.4754-.331.8784-.827 1.209-1.488.3514-.682.62-1.54.806-2.573.186-1.054.279-2.3043.279-3.751s-.093-2.6867-.279-3.72-.4546-1.8703-.806-2.511c-.3306-.6613-.7336-1.147-1.209-1.457-.4546-.31-.9713-.465-1.55-.465-.5786 0-1.1056.155-1.581.465-.4753.31-.8886.7957-1.24 1.457-.3306.6407-.589 1.4777-.775 2.511s-.279 2.2733-.279 3.72c0 2.8933.3514 5.001 1.054 6.324.7234 1.302 1.6637 1.953 2.821 1.953zm15.4092 2.046c-2.0046 0-3.565-.889-4.681-2.666s-1.674-4.3297-1.674-7.657.558-5.859 1.674-7.595 2.6764-2.604 4.681-2.604c1.984 0 3.534.868 4.65 2.604s1.674 4.2677 1.674 7.595-.558 5.88-1.674 7.657-2.666 2.666-4.65 2.666zm0-2.046c.5787 0 1.0954-.155 1.55-.465.4754-.331.8784-.827 1.209-1.488.3514-.682.62-1.54.806-2.573.186-1.054.279-2.3043.279-3.751s-.093-2.6867-.279-3.72-.4546-1.8703-.806-2.511c-.3306-.6613-.7336-1.147-1.209-1.457-.4546-.31-.9713-.465-1.55-.465-.5786 0-1.1056.155-1.581.465-.4753.31-.8886.7957-1.24 1.457-.3306.6407-.589 1.4777-.775 2.511s-.279 2.2733-.279 3.72c0 2.8933.3514 5.001 1.054 6.324.7234 1.302 1.6637 1.953 2.821 1.953z"/><path d="m2.68338 28.892h4.526v-14.57h-3.596v-1.643c.90933-.1653 1.69466-.3617 2.356-.589.682-.248 1.29166-.5373 1.829-.868h1.953v17.67h4.09202v2.108h-11.16002zm15.40922 0h4.526v-14.57h-3.596v-1.643c.9093-.1653 1.6946-.3617 2.356-.589.682-.248 1.2916-.5373 1.829-.868h1.953v17.67h4.092v2.108h-11.16zm14.4171 5.89c.868-.3927 1.55-.9093 2.046-1.55s.744-1.3847.744-2.232c-.062.0207-.1653.031-.31.031-.496 0-.93-.1447-1.302-.434-.3513-.31-.527-.7543-.527-1.333 0-.558.186-.992.558-1.302.372-.3307.8164-.496 1.333-.496.6614 0 1.178.2687 1.55.806.3927.5373.589 1.271.589 2.201 0 1.3433-.3616 2.511-1.085 3.503-.7233.992-1.7153 1.7567-2.976 2.294zm13.5478-13.392c.6406 0 1.3226-.1963 2.046-.589.744-.4133 1.4466-1.0953 2.108-2.046-.1654-1.9427-.62-3.41-1.364-4.402s-1.7464-1.488-3.007-1.488c-.4754 0-.93.1033-1.364.31-.4134.2067-.775.5063-1.085.899-.31.372-.558.8267-.744 1.364-.1654.5373-.248 1.1263-.248 1.767 0 1.302.2996 2.325.899 3.069.5993.744 1.519 1.116 2.759 1.116zm-4.278 6.293c.4133.4753.899.8577 1.457 1.147.5786.2893 1.178.434 1.798.434.7026 0 1.364-.1447 1.984-.434s1.1676-.7647 1.643-1.426c.4753-.682.8576-1.5603 1.147-2.635.2893-1.0747.4443-2.4077.465-3.999-.62.7853-1.3434 1.4053-2.17 1.86-.8267.4547-1.6534.682-2.48.682-1.7154 0-3.0794-.5063-4.092-1.519-1.0127-1.0127-1.519-2.542-1.519-4.588 0-.9507.155-1.8083.465-2.573.31-.7853.7233-1.457 1.24-2.015.5373-.558 1.1573-.992 1.86-1.302.7233-.31 1.4776-.465 2.263-.465.9713 0 1.8703.1963 2.697.589.8473.3927 1.5706.992 2.17 1.798.62.7853 1.0953 1.7773 1.426 2.976.3513 1.178.527 2.5627.527 4.154 0 1.984-.2067 3.6787-.62 5.084-.4134 1.3847-.9714 2.5213-1.674 3.41-.7027.868-1.5087 1.5087-2.418 1.922-.8887.3927-1.829.589-2.821.589-1.054 0-1.984-.1963-2.79-.589-.7854-.3927-1.4467-.8887-1.984-1.488zm20.1211 3.689c-2.0046 0-3.565-.8887-4.681-2.666s-1.674-4.3297-1.674-7.657.558-5.859 1.674-7.595 2.6764-2.604 4.681-2.604c1.984 0 3.534.868 4.65 2.604s1.674 4.2677 1.674 7.595-.558 5.8797-1.674 7.657-2.666 2.666-4.65 2.666zm0-2.046c.5787 0 1.0954-.155 1.55-.465.4754-.3307.8784-.8267 1.209-1.488.3514-.682.62-1.5397.806-2.573.186-1.054.279-2.3043.279-3.751s-.093-2.6867-.279-3.72-.4546-1.8703-.806-2.511c-.3306-.6613-.7336-1.147-1.209-1.457-.4546-.31-.9713-.465-1.55-.465-.5786 0-1.1056.155-1.581.465-.4753.31-.8886.7957-1.24 1.457-.3306.6407-.589 1.4777-.775 2.511s-.279 2.2733-.279 3.72c0 2.8933.3514 5.0013 1.054 6.324.7234 1.302 1.6637 1.953 2.821 1.953zm15.4092 2.046c-2.0046 0-3.565-.8887-4.681-2.666s-1.674-4.3297-1.674-7.657.558-5.859 1.674-7.595 2.6764-2.604 4.681-2.604c1.984 0 3.534.868 4.65 2.604s1.674 4.2677 1.674 7.595-.558 5.8797-1.674 7.657-2.666 2.666-4.65 2.666zm0-2.046c.5787 0 1.0954-.155 1.55-.465.4754-.3307.8784-.8267 1.209-1.488.3514-.682.62-1.5397.806-2.573.186-1.054.279-2.3043.279-3.751s-.093-2.6867-.279-3.72-.4546-1.8703-.806-2.511c-.3306-.6613-.7336-1.147-1.209-1.457-.4546-.31-.9713-.465-1.55-.465-.5786 0-1.1056.155-1.581.465-.4753.31-.8886.7957-1.24 1.457-.3306.6407-.589 1.4777-.775 2.511s-.279 2.2733-.279 3.72c0 2.8933.3514 5.0013 1.054 6.324.7234 1.302 1.6637 1.953 2.821 1.953z"/></g></svg>